<?xml version="1.0" encoding="UTF-8"?>
<svg id="Layer_2" data-name="Layer 2" xmlns="http://www.w3.org/2000/svg" viewBox="0 0 3839.64 359.65">
  <defs>
    <style>
      .cls-1 {
        fill: #5bc4b9;
      }

      .cls-1, .cls-2, .cls-3 {
        opacity: .4;
      }

      .cls-2 {
        fill: #9ed9dc;
      }

      .cls-4 {
        fill: #304057;
      }

      .cls-5 {
        fill: none;
        stroke: #48c2c5;
        stroke-miterlimit: 10;
        stroke-width: 4px;
      }

      .cls-3 {
        fill: #14a085;
      }
    </style>
  </defs>
  <g id="Banner">
    <path class="cls-2" d="M0,178.49C292.27,118.77,499.04,0,991.36,0c657.68,0,1128.25,226.5,1576.15,226.5,386.61,0,890.59-175.9,1272.13-144.89v278.04H0v-181.16Z"/>
    <path class="cls-3" d="M3839.64,290.5c-336.6,0-381.06-144.28-653.67-144.28s-317.97,132.64-879.26,132.64S1546.97,99.98,1031.04,99.98,510.79,267.23,0,267.23v92.42h3839.64v-69.15Z"/>
    <path class="cls-1" d="M0,60.67c243.27,0,543.46,119.15,940.34,119.15s703.04-91.59,1287-91.59,714.36,141.58,1014.86,141.58,597.44-84.57,597.44-84.57v214.4H0V60.67Z"/>
    <path class="cls-4" d="M0,303.25c475.28-4.46,549.02-56.4,1036.7-56.4,521.6,0,606.65,78.53,1048.88,78.53s712.25-66.9,905.01-66.9c254.44,0,591.61,60.26,849.05,60.26v40.91H0v-56.4Z"/>
    <path class="cls-5" d="M3839.64,246.85c-248.93,0-360.31-113.1-907.72-113.1s-536.06,113.1-972.63,113.1S1341.3,60.67,904.74,60.67,201.8,281.79,0,281.79"/>
    <path class="cls-5" d="M3839.64,46.19c-294.28,0-347.98,183.63-965.97,183.63s-646.32-84.57-980.84-84.57-476.25,158.01-1060.22,158.01C370.25,303.25,238.65,121.98,0,121.98"/>
  </g>
</svg>